<?xml version="1.0" standalone="no"?>
<!DOCTYPE svg PUBLIC "-//W3C//DTD SVG 20010904//EN"
 "http://www.w3.org/TR/2001/REC-SVG-20010904/DTD/svg10.dtd">
<svg version="1.0" xmlns="http://www.w3.org/2000/svg"
 width="1280.000000pt" height="1280.000000pt" viewBox="0 0 1280.000000 1280.000000"
 preserveAspectRatio="xMidYMid meet">
<metadata>
Created by potrace 1.14, written by Peter Selinger 2001-2017
</metadata>
<g transform="translate(0.000000,1280.000000) scale(0.100000,-0.100000)"
fill="#000000" stroke="none">
<path d="M3020 11793 c-105 -10 -305 -51 -455 -94 -209 -59 -317 -75 -521 -78
-318 -3 -421 -19 -558 -85 -90 -44 -213 -134 -294 -217 -182 -184 -473 -650
-636 -1019 -16 -36 -39 -87 -52 -115 -107 -234 -247 -646 -323 -950 -34 -139
-80 -352 -87 -410 -3 -22 -9 -56 -14 -75 -5 -19 -11 -62 -15 -95 -3 -33 -8
-67 -10 -75 -6 -25 -18 -129 -37 -325 -19 -208 -15 -884 7 -990 2 -11 6 -47 9
-80 6 -66 23 -209 29 -240 3 -11 8 -42 12 -70 14 -102 65 -344 103 -495 88
-347 200 -667 360 -1025 44 -100 208 -425 255 -506 l44 -76 -30 -58 c-52 -103
-85 -197 -121 -345 -36 -149 -42 -178 -52 -265 -3 -27 -7 -56 -10 -63 -17 -55
-26 -535 -12 -697 40 -464 173 -820 374 -1004 103 -94 210 -152 282 -153 85 0
155 164 116 273 -32 89 -24 129 45 222 l42 57 -8 63 c-15 123 -7 156 66 266
35 53 36 57 36 152 0 110 0 111 96 185 61 47 95 60 134 50 14 -4 97 -78 188
-169 173 -172 208 -205 327 -308 479 -411 1033 -725 1639 -928 201 -67 399
-120 701 -186 61 -14 156 -31 218 -40 205 -30 319 -45 377 -50 39 -4 88 -9
110 -11 204 -19 638 -24 885 -11 175 9 483 37 580 52 14 2 93 13 175 25 83 12
193 30 245 40 52 11 107 21 123 24 15 3 35 7 45 10 16 5 28 7 100 21 15 3 83
19 152 36 69 17 132 32 140 34 8 1 35 8 60 15 25 7 52 14 60 15 8 2 83 22 165
45 83 23 175 48 205 56 211 57 727 224 1445 467 346 117 414 139 540 171 220
57 352 69 460 41 153 -40 242 -125 500 -480 60 -82 112 -152 115 -155 3 -3 23
-27 44 -55 39 -49 176 -215 186 -225 3 -3 43 -48 89 -100 98 -110 401 -414
481 -482 282 -240 455 -336 561 -313 47 11 82 65 84 132 2 58 -22 179 -51 254
-25 68 -54 142 -64 164 -5 11 -28 66 -50 123 -114 290 -117 439 -15 692 30 74
62 167 71 205 57 251 -14 424 -246 593 -180 132 -186 150 -75 257 139 137 186
237 191 410 3 124 -7 191 -66 420 -60 230 -75 346 -58 451 4 29 32 115 62 191
64 161 73 200 53 227 -17 24 -44 23 -142 -2 -142 -37 -238 -72 -351 -127 -288
-140 -461 -299 -857 -786 -131 -161 -185 -209 -237 -209 -39 0 -69 16 -195
100 -198 132 -329 198 -542 275 -139 49 -467 123 -623 140 -70 8 -126 15 -159
20 -57 8 -110 13 -186 20 -38 3 -86 8 -105 10 -50 6 -133 13 -225 20 -44 3
-102 8 -130 10 -27 2 -84 7 -125 10 -41 3 -93 8 -115 10 -22 2 -87 7 -145 10
-58 3 -116 8 -130 10 -23 3 -155 14 -260 20 -67 4 -191 15 -220 20 -14 2 -65
6 -115 10 -49 4 -92 8 -95 10 -3 1 -38 6 -78 9 -40 4 -78 9 -85 11 -6 2 -30 6
-52 9 -144 17 -403 83 -559 142 -434 166 -911 546 -1191 948 -312 450 -477
1007 -520 1756 -9 146 -8 470 1 690 13 304 7 828 -11 882 -2 7 -6 45 -9 83 -3
39 -8 81 -10 95 -2 14 -7 48 -10 75 -21 173 -67 414 -117 605 -17 63 -32 120
-33 125 -24 109 -150 441 -225 595 -217 447 -506 767 -846 937 -109 55 -199
86 -340 118 -101 23 -147 28 -285 29 -91 2 -181 1 -200 -1z"/>
</g>
</svg>
